# xmcd
#
# Track frame offsets: 
#        150
#        9041
#        16009
#        31279
#        44535
#        60141
#        75956
#        83567
#        95324
#        108913
#        125810
#        143299
#        158144
#        172202
#        181614
#        194456
#        204636
#        221847
#        236335
#        254944
#        272078
#        298353
#        324275
#
# Disc length: 4483 seconds
#
# Revision: 1
# Processed by: cddbd v1.5.2PL0 Copyright (c) Steve Scherf et al.
# Submitted via: ExactAudioCopy v0.95b4
#
DISCID=31118117
DTITLE=Clifton Chenier, Mance Lipscomb, Lightning Hopkins - Live! At T
DTITLE=he 1966 Berkeley Blues Festival
DYEAR=1966
DGENRE=Blues
TTITLE0=Stop Time
TTITLE1=I Ain't Got Nobody
TTITLE2=Downtown Blues
TTITLE3=Shake, Shake, Mama
TTITLE4=The Sinking Of The Titanic (God Moves On The Water)
TTITLE5=Take Your Arms From Around My Neck, Sugar Babe
TTITLE6=When The Saints Go Marching In
TTITLE7=Intro and Lousiana Shuffle
TTITLE8=French Zydeco
TTITLE9=Clifton's After Hours
TTITLE10=Scratch My Back
TTITLE11=Everybody Calls Me Crazy
TTITLE12=What'd I Say?
TTITLE13=Old Country Waltz
TTITLE14=Louisiana Rock
TTITLE15=Clifton's Boogie Woogie
TTITLE16=If You Don't Want Me
TTITLE17=I Feel So Good
TTITLE18=Last Night
TTITLE19=Goin' To Louisiana (Mojo Hand)
TTITLE20=Black Cadillac
TTITLE21=Short Haired Woman
TTITLE22=Lighnting's Boogie
EXTD=
EXTT0=
EXTT1=
EXTT2=
EXTT3=
EXTT4=
EXTT5=
EXTT6=
EXTT7=
EXTT8=
EXTT9=
EXTT10=
EXTT11=
EXTT12=
EXTT13=
EXTT14=
EXTT15=
EXTT16=
EXTT17=
EXTT18=
EXTT19=
EXTT20=
EXTT21=
EXTT22=
PLAYORDER=
